<svg width="80" height="80" xmlns="http://www.w3.org/2000/svg">
  <g>
    <metadata transform="matrix(0.0006781683704401888,0,0,0.0006781683704401888,0,0) ">Free Icon Download -- www.onlinewebfonts.com</metadata>
    <g stroke="null" id="svg_5">
      <path stroke="null" id="svg_4" d="m40.500104,9.926018c-9.492477,0 -19.73861,7.547327 -19.73861,19.73861c0,6.016687 2.393755,11.078743 6.991057,14.915211c0.048449,0.06101 0.104076,0.113048 0.165087,0.157909c3.411191,3.700092 3.583455,4.403504 3.606782,6.031042c0.010767,0.644196 0.005383,0.834405 0,0.938481l-0.007178,0.375034c-0.026916,0.811077 -0.068188,2.169453 1.613183,2.682656l14.524028,3.19586c0.064599,0.014355 0.129198,0.021533 0.192003,0.021533c0.412716,0 0.784161,-0.285313 0.875677,-0.705207c0.107665,-0.484493 -0.199181,-0.963603 -0.683674,-1.069474l-14.454046,-3.177916c-0.278135,-0.084338 -0.301462,-0.091515 -0.276341,-0.893621l0.005383,-0.342734c0,0 0.017944,-0.139965 0.003589,-1.05153c-0.034094,-2.277118 -0.529354,-3.377097 -4.143314,-7.283547c-0.069982,-0.086132 -0.15432,-0.157909 -0.24763,-0.211741c-4.227651,-3.594221 -6.370188,-8.162812 -6.370188,-13.581958c0,-11.084127 9.313035,-17.944191 17.944191,-17.944191c8.821364,0 17.944191,6.712922 17.944191,17.944191c0,7.138199 -3.45964,11.07336 -6.312766,13.549658c-0.098693,0.046655 -0.18662,0.113048 -0.26378,0.195592c-3.655232,3.9549 -4.150491,5.054879 -4.184585,7.331996c0,0.053833 -0.001794,0.116637 0,0.184825l-0.001794,0.062805c-0.005383,0.136376 -0.025122,0.211741 -0.023327,0.240452c-0.06101,-0.008972 -0.209947,-0.0323 -0.209947,-0.0323l-7.527588,-1.771092c-0.488082,-0.111254 -0.965397,0.18662 -1.078446,0.667524c-0.113048,0.482699 0.184825,0.965397 0.667524,1.08024l7.436073,1.744175c0.098693,0.035888 0.992314,0.326584 1.74597,-0.202769c0.328379,-0.23148 0.71059,-0.685468 0.778778,-1.553967l0.005383,-0.084338c0.001794,-0.057421 0.003589,-0.116637 0.003589,-0.177647c0,-0.01615 0,-0.0323 -0.001794,-0.046655l0.001794,-0.082543c0.023327,-1.618566 0.192003,-2.321978 3.59781,-6.02207c0.01615,-0.012561 0.034094,-0.025122 0.048449,-0.039477c4.785716,-4.021293 7.113077,-8.943385 7.113077,-15.044409c0,-12.354575 -10.036186,-19.73861 -19.73861,-19.73861zm7.177676,52.935362c0.410922,0 0.780572,-0.281724 0.873882,-0.699823c0.111254,-0.482699 -0.192003,-0.963603 -0.676496,-1.073063l-14.355353,-3.255076c-0.486288,-0.107665 -0.963603,0.193797 -1.073063,0.676496c-0.111254,0.482699 0.192003,0.963603 0.676496,1.073063l14.355353,3.255076c0.068188,0.01615 0.134581,0.023327 0.199181,0.023327zm-13.262551,0.096899c-0.486288,-0.107665 -0.961809,0.195592 -1.073063,0.67829c-0.107665,0.484493 0.195592,0.963603 0.680085,1.071268l11.663724,2.616263c0.068188,0.01615 0.132787,0.023327 0.197386,0.023327c0.410922,0 0.782367,-0.283518 0.875677,-0.701618c0.107665,-0.484493 -0.195592,-0.963603 -0.680085,-1.071268l-11.663724,-2.616263z"/>
    </g>
  </g>
</svg>
